<?xml version="1.0" encoding="UTF-8" standalone="no"?>
<!-- Created with Inkscape (http://www.inkscape.org/) -->

<svg
   width="70.381699mm"
   height="88.923172mm"
   viewBox="0 0 70.381699 88.923172"
   version="1.1"
   id="svg96747"
   inkscape:version="1.1.1 (3bf5ae0d25, 2021-09-20)"
   sodipodi:docname="logo.svg"
   xmlns:inkscape="http://www.inkscape.org/namespaces/inkscape"
   xmlns:sodipodi="http://sodipodi.sourceforge.net/DTD/sodipodi-0.dtd"
   xmlns="http://www.w3.org/2000/svg"
   xmlns:svg="http://www.w3.org/2000/svg">
  <sodipodi:namedview
     id="namedview96749"
     pagecolor="#505050"
     bordercolor="#eeeeee"
     borderopacity="1"
     inkscape:pageshadow="0"
     inkscape:pageopacity="0"
     inkscape:pagecheckerboard="0"
     inkscape:document-units="mm"
     showgrid="false"
     inkscape:zoom="1.2810466"
     inkscape:cx="55.423434"
     inkscape:cy="58.936187"
     inkscape:window-width="1920"
     inkscape:window-height="991"
     inkscape:window-x="-9"
     inkscape:window-y="-9"
     inkscape:window-maximized="1"
     inkscape:current-layer="layer1"
     lock-margins="true"
     fit-margin-top="1"
     fit-margin-left="1"
     fit-margin-right="1"
     fit-margin-bottom="1" />
  <defs
     id="defs96744" />
  <g
     inkscape:label="Layer 1"
     inkscape:groupmode="layer"
     id="layer1"
     transform="translate(-56.816619,-78.462212)">
    <path
       style="fill:#000000;stroke-width:0.0846667"
       d="m 120.10232,166.22608 c -1.5525,-0.50252 -2.62219,-1.5915 -3.08081,-3.13637 -0.0882,-0.29711 -0.13652,-0.7786 -0.13652,-1.36046 0,-1.42892 0.39419,-2.44187 1.30449,-3.35218 0.9103,-0.9103 1.92326,-1.30449 3.35217,-1.30449 1.42892,0 2.44187,0.39419 3.35218,1.30449 0.9103,0.91031 1.30449,1.92326 1.30449,3.35218 0,0.58186 -0.0483,1.06335 -0.13652,1.36046 -0.46453,1.56478 -1.59491,2.69515 -3.15968,3.15969 -0.64397,0.19116 -2.17658,0.17841 -2.7998,-0.0233 z m 2.65539,-1.90511 c 0.60492,-0.29596 1.25757,-1.00751 1.4873,-1.62152 0.39636,-1.05937 0.14482,-2.11618 -0.70628,-2.96728 -0.61356,-0.61356 -1.22074,-0.88159 -1.99708,-0.88159 -1.0457,0 -2.11482,0.68975 -2.59975,1.67724 -0.20298,0.41334 -0.23646,0.58396 -0.23575,1.20143 9.8e-4,0.85293 0.17143,1.30132 0.72156,1.89815 0.66831,0.72502 1.30949,0.99528 2.25557,0.95072 0.44583,-0.021 0.73149,-0.0894 1.07443,-0.25715 z m -14.17006,-8.30044 c -3.27697,-0.72738 -5.66399,-3.16096 -6.34255,-6.46629 -0.13402,-0.65278 -0.11551,-2.68995 0.0307,-3.37696 0.52238,-2.45504 2.07284,-4.50157 4.23755,-5.59336 1.29946,-0.65539 2.24309,-0.86801 3.85233,-0.86801 1.60925,0 2.55288,0.21262 3.85234,0.86801 1.48777,0.75037 2.74195,2.00455 3.49232,3.49233 0.65539,1.29945 0.86801,2.24309 0.86801,3.85233 0,1.60924 -0.21262,2.55288 -0.86801,3.85233 -1.09178,2.16471 -3.13831,3.71517 -5.59336,4.23755 -0.7048,0.14997 -2.8573,0.15123 -3.5293,0.002 z M 97.411651,138.5792 c -2.44997,-0.54381 -4.48395,-2.09291 -5.56665,-4.23962 -0.65539,-1.29946 -0.86801,-2.24309 -0.86801,-3.85233 0,-1.60925 0.21262,-2.55288 0.86801,-3.85234 0.75036,-1.48778 2.00454,-2.74195 3.49232,-3.49232 1.29946,-0.65539 2.24309,-0.86801 3.85233,-0.86801 1.609249,0 2.552879,0.21262 3.852339,0.86801 1.48777,0.75037 2.74195,2.00454 3.49232,3.49232 0.65539,1.29946 0.86801,2.24309 0.86801,3.85234 0,1.60924 -0.21262,2.55287 -0.86801,3.85233 -1.09178,2.16471 -3.13831,3.71517 -5.59336,4.23755 -0.7048,0.14997 -2.857299,0.15123 -3.529299,0.002 z m 3.747449,-1.97092 c 1.06769,-0.37354 1.60822,-0.7243 2.51775,-1.63384 0.90629,-0.90628 1.25633,-1.44427 1.63819,-2.51775 0.24914,-0.70038 0.26386,-0.81029 0.26386,-1.96944 0,-1.15916 -0.0147,-1.26907 -0.26386,-1.96945 -0.38186,-1.07348 -0.7319,-1.61147 -1.63819,-2.51775 -0.90527,-0.90527 -1.44243,-1.25507 -2.51775,-1.63954 -0.70168,-0.25089 -0.80814,-0.26522 -1.969449,-0.26522 -1.1613,0 -1.26776,0.0143 -1.96945,0.26522 -1.07531,0.38447 -1.61248,0.73427 -2.51775,1.63954 -0.90628,0.90628 -1.25633,1.44427 -1.63818,2.51775 -0.24914,0.70038 -0.26387,0.81029 -0.26387,1.96945 0,1.15915 0.0147,1.26906 0.26387,1.96944 0.34315,0.96468 0.70034,1.54951 1.41831,2.3222 0.97291,1.04707 1.91823,1.62814 3.22541,1.98262 0.46965,0.12735 0.81234,0.15506 1.651,0.1335 0.921219,-0.0237 1.154429,-0.0608 1.800109,-0.28673 z M 89.436061,123.46583 c -0.57931,-0.18523 -1.33138,-0.59864 -1.82809,-1.0049 l -0.36335,-0.29718 -0.86432,0.26709 c -1.01989,0.31516 -1.98507,0.54451 -3.15031,0.7486 -1.25129,0.21917 -5.624889,0.21857 -6.928049,-9.5e-4 -4.78311,-0.80568 -8.78734,-2.84937 -12.12775,-6.18978 -3.34041,-3.34041 -5.3841,-7.34464 -6.18979,-12.12775 -0.22371,-1.32809 -0.22371,-5.585344 0,-6.913434 0.38835,-2.305478 1.0043,-4.235779 2.0039,-6.279947 1.15386,-2.359647 2.54692,-4.283868 4.41418,-6.097312 3.24058,-3.147168 7.2754,-5.161373 11.89946,-5.940272 1.32808,-0.22371 5.585339,-0.22371 6.913429,0 4.78311,0.80569 8.78734,2.849378 12.12775,6.189786 3.34041,3.340409 5.384089,7.344639 6.189779,12.127746 0.22371,1.32809 0.22371,5.585343 0,6.913433 -0.62114,3.68752 -1.999849,6.94091 -4.168239,9.83595 -0.38366,0.51224 -0.91256,1.16761 -1.17534,1.45639 l -0.47777,0.52506 0.13827,0.53327 c 0.2003,0.77253 0.13895,2.46197 -0.11446,3.15221 -0.55627,1.51515 -1.72472,2.63275 -3.24833,3.10695 -0.7008,0.21811 -2.36177,0.21541 -3.05097,-0.005 z m 2.43601,-1.83941 c 0.8343,-0.28024 1.5792,-0.959 1.97214,-1.79701 0.1894,-0.40395 0.22311,-0.59126 0.22311,-1.23991 0,-0.50645 -0.0371,-0.8062 -0.11007,-0.889 -0.0605,-0.0687 -0.27009,-0.40962 -0.46567,-0.7576 -0.41015,-0.72973 -0.91804,-1.16515 -1.61557,-1.38503 -1.47363,-0.46452 -3.06152,0.29265 -3.76619,1.79588 -0.30532,0.65131 -0.32208,1.79981 -0.0348,2.38083 0.24429,0.494 0.91607,1.30107 1.29325,1.5537 0.69574,0.466 1.7138,0.60349 2.50375,0.33814 z m -10.46242,-0.28781 c 1.10753,-0.10092 3.12234,-0.49049 4.064,-0.78579 0.61429,-0.19264 0.63405,-0.20716 0.60567,-0.44519 -0.0161,-0.13533 -0.0351,-0.81755 -0.0422,-1.51605 -0.0114,-1.12749 0.008,-1.32636 0.17651,-1.77226 0.57682,-1.5302 1.73208,-2.6335 3.25327,-3.10695 0.66439,-0.20678 2.28337,-0.2202 2.95517,-0.0245 0.52264,0.15226 1.43594,0.62843 1.81158,0.9445 l 0.25276,0.21269 0.33041,-0.37041 c 3.4021,-3.81406 5.285539,-9.34241 4.89534,-14.36902 -0.49261,-6.345828 -3.71742,-11.837309 -9.03156,-15.379713 -3.61092,-2.407043 -8.0939,-3.605645 -12.24806,-3.274734 -6.340179,0.505043 -11.816089,3.726277 -15.352249,9.031049 -2.40467,3.607366 -3.59817,8.060567 -3.27524,12.220598 0.49261,6.34583 3.71742,11.83731 9.03155,15.37972 3.71035,2.47332 8.25288,3.6497 12.572999,3.25605 z"
       id="path97012" />
  </g>
</svg>
